<?xml version="1.0" encoding="UTF-8"?>
<svg xmlns="http://www.w3.org/2000/svg" xmlns:xlink="http://www.w3.org/1999/xlink" width="32px" height="32px" viewBox="0 0 32 32" version="1.1">
<g id="surface1">
<path style=" stroke:none;fill-rule:nonzero;fill:rgb(0%,0%,0%);fill-opacity:1;" d="M 20.0625 0.0234375 C 19.800781 0.0664062 19.492188 0.183594 19.238281 0.335938 C 19.054688 0.449219 18.75 0.746094 18.65625 0.914062 C 18.503906 1.183594 18.492188 1.394531 18.621094 1.683594 C 18.683594 1.820312 18.683594 1.835938 18.652344 2.015625 C 18.566406 2.5 18.214844 3.144531 17.972656 3.265625 C 17.898438 3.308594 17.808594 3.3125 17.191406 3.308594 C 16.136719 3.304688 14.066406 3.132812 13.335938 2.988281 C 12.96875 2.917969 12.820312 2.839844 12.460938 2.539062 C 11.691406 1.878906 11.292969 2.1875 10.9375 3.71875 C 10.867188 4.03125 10.855469 4.140625 10.851562 4.449219 C 10.847656 4.78125 10.855469 4.824219 10.914062 4.933594 C 11.039062 5.175781 11.253906 5.234375 11.675781 5.152344 C 11.992188 5.089844 12.175781 5.085938 12.460938 5.136719 C 13.226562 5.273438 15.535156 6.015625 16.242188 6.351562 C 16.671875 6.558594 16.890625 6.753906 16.964844 6.996094 C 17.042969 7.265625 16.945312 7.746094 16.265625 10.460938 C 15.660156 12.890625 14.449219 17.304688 13.882812 19.164062 C 13.03125 21.953125 12.355469 23.429688 11.738281 23.859375 C 11.375 24.113281 9.589844 24.261719 8.691406 24.113281 C 7.21875 23.871094 5.691406 22.617188 4.019531 20.28125 C 3.628906 19.734375 3.371094 19.351562 3.371094 19.316406 C 3.371094 19.285156 4.894531 19.316406 5.390625 19.359375 C 5.613281 19.378906 5.796875 19.390625 5.800781 19.386719 C 5.804688 19.386719 5.660156 19.289062 5.480469 19.171875 C 5.296875 19.050781 4.328125 18.425781 3.316406 17.773438 C 2.308594 17.125 1.375 16.519531 1.242188 16.433594 L 0.996094 16.273438 L 0.726562 17.820312 C 0.214844 20.71875 -0.0195312 22.246094 0.00390625 22.480469 C 0.015625 22.574219 0.0859375 22.601562 0.160156 22.539062 C 0.230469 22.476562 0.433594 22.160156 0.777344 21.574219 C 1.101562 21.019531 1.421875 20.503906 1.445312 20.5 C 1.453125 20.5 1.488281 20.597656 1.523438 20.71875 C 1.707031 21.34375 2.070312 22.316406 2.382812 23.011719 C 3.242188 24.949219 4.320312 26.277344 5.726562 27.136719 C 6.273438 27.476562 6.90625 27.757812 7.679688 28.011719 C 9.355469 28.5625 11.070312 29.296875 11.730469 29.746094 C 11.972656 29.910156 12.1875 30.289062 12.457031 31.03125 C 12.679688 31.636719 12.894531 32 13.039062 32 C 13.179688 32 13.449219 31.808594 13.964844 31.335938 C 14.660156 30.707031 14.871094 30.558594 15.160156 30.488281 C 15.546875 30.398438 16.496094 30.363281 17.523438 30.398438 C 18.417969 30.429688 18.777344 30.453125 19.558594 30.53125 C 20.332031 30.609375 21.335938 30.609375 21.871094 30.53125 C 23.332031 30.316406 24.597656 29.773438 25.980469 28.761719 C 26.898438 28.085938 27.957031 27.109375 29.058594 25.914062 C 29.296875 25.648438 29.515625 25.398438 29.550781 25.359375 C 29.609375 25.273438 29.644531 25.253906 29.644531 25.304688 C 29.644531 25.324219 29.664062 25.46875 29.6875 25.636719 C 29.707031 25.796875 29.75 26.296875 29.777344 26.746094 C 29.808594 27.195312 29.847656 27.644531 29.859375 27.746094 C 29.882812 27.917969 29.9375 28.023438 29.996094 28.023438 C 30.0625 28.023438 30.257812 27.511719 30.636719 26.351562 C 31.09375 24.953125 32.011719 21.976562 31.992188 21.960938 C 31.988281 21.953125 31.578125 22.011719 31.085938 22.085938 C 30.59375 22.160156 29.320312 22.351562 28.253906 22.511719 C 27.1875 22.671875 26.296875 22.808594 26.273438 22.816406 C 26.253906 22.824219 26.402344 22.886719 26.609375 22.960938 C 27.195312 23.167969 27.613281 23.335938 28.113281 23.566406 C 28.496094 23.742188 28.574219 23.789062 28.542969 23.8125 C 28.492188 23.859375 26.992188 24.753906 26.59375 24.980469 C 24.929688 25.914062 23.503906 26.476562 22.300781 26.664062 C 21.914062 26.726562 21.101562 26.726562 20.777344 26.667969 C 20.167969 26.550781 19.15625 26.101562 18.433594 25.621094 C 17.96875 25.316406 17.839844 25.152344 17.753906 24.785156 C 17.566406 23.957031 17.679688 22.496094 18.117188 20.039062 C 18.660156 16.976562 20.164062 10.050781 20.65625 8.355469 C 20.867188 7.636719 21.203125 7.480469 22.417969 7.546875 C 23.300781 7.597656 24.894531 7.773438 25.515625 7.886719 C 26.035156 7.984375 26.242188 8.0625 26.5 8.257812 C 26.816406 8.492188 27.011719 8.546875 27.222656 8.449219 C 27.445312 8.351562 27.621094 8.054688 27.785156 7.519531 C 28 6.824219 28.082031 6.195312 28.003906 5.90625 C 27.949219 5.710938 27.898438 5.640625 27.757812 5.574219 C 27.59375 5.5 27.382812 5.511719 26.996094 5.613281 C 26.566406 5.726562 26.445312 5.738281 26.15625 5.691406 C 25.359375 5.550781 22.253906 4.4375 21.773438 4.121094 C 21.71875 4.085938 21.683594 4.023438 21.640625 3.890625 C 21.589844 3.738281 21.582031 3.65625 21.582031 3.351562 C 21.582031 2.777344 21.671875 2.492188 21.902344 2.316406 C 22.09375 2.164062 22.167969 1.996094 22.167969 1.699219 C 22.167969 1.515625 22.152344 1.421875 22.101562 1.289062 C 22.003906 1.011719 21.816406 0.738281 21.578125 0.511719 C 21.21875 0.175781 20.882812 0.03125 20.445312 0.0117188 C 20.300781 0.0078125 20.132812 0.0117188 20.0625 0.0234375 Z M 20.648438 1.089844 C 20.835938 1.175781 20.921875 1.289062 20.921875 1.433594 C 20.921875 1.578125 20.84375 1.699219 20.707031 1.773438 C 20.605469 1.828125 20.554688 1.835938 20.375 1.835938 C 20.089844 1.835938 19.921875 1.765625 19.835938 1.601562 C 19.714844 1.386719 19.789062 1.136719 19.992188 1.046875 C 20.160156 0.976562 20.4375 0.992188 20.648438 1.089844 Z M 20.648438 1.089844 "/>
</g>
</svg>
